<mxfile host="Electron" modified="2023-07-01T14:09:09.087Z" agent="Mozilla/5.0 (Macintosh; Intel Mac OS X 10_15_7) AppleWebKit/537.36 (KHTML, like Gecko) draw.io/21.5.1 Chrome/112.0.5615.204 Electron/24.6.0 Safari/537.36" etag="yy1qYPpOWaU_UjAPFf03" version="21.5.1" type="device" pages="2">
  <diagram name="Generar Cotizacion [DSS]" id="13e1069c-82ec-6db2-03f1-153e76fe0fe0">
    <mxGraphModel dx="984" dy="647" grid="1" gridSize="10" guides="1" tooltips="1" connect="1" arrows="1" fold="1" page="1" pageScale="1" pageWidth="1100" pageHeight="850" background="none" math="0" shadow="0">
      <root>
        <mxCell id="0" />
        <mxCell id="1" parent="0" />
        <mxCell id="AwBZS3FAdFc2S0S6h1P7-2" value="Vendedor" style="shape=umlActor;verticalLabelPosition=bottom;verticalAlign=top;html=1;" parent="1" vertex="1">
          <mxGeometry x="380" y="220" width="30" height="60" as="geometry" />
        </mxCell>
        <mxCell id="AwBZS3FAdFc2S0S6h1P7-5" value="" style="endArrow=none;dashed=1;html=1;rounded=0;" parent="1" edge="1">
          <mxGeometry width="50" height="50" relative="1" as="geometry">
            <mxPoint x="394.40999999999997" y="360" as="sourcePoint" />
            <mxPoint x="394.40999999999997" y="300" as="targetPoint" />
          </mxGeometry>
        </mxCell>
        <mxCell id="AwBZS3FAdFc2S0S6h1P7-6" value="Sistema" style="ellipse;shape=umlEntity;whiteSpace=wrap;html=1;" parent="1" vertex="1">
          <mxGeometry x="540" y="220" width="80" height="80" as="geometry" />
        </mxCell>
        <mxCell id="AwBZS3FAdFc2S0S6h1P7-7" value="" style="endArrow=none;dashed=1;html=1;rounded=0;" parent="1" edge="1">
          <mxGeometry width="50" height="50" relative="1" as="geometry">
            <mxPoint x="580" y="360" as="sourcePoint" />
            <mxPoint x="580" y="300" as="targetPoint" />
          </mxGeometry>
        </mxCell>
        <mxCell id="AwBZS3FAdFc2S0S6h1P7-8" value="Producto" style="html=1;whiteSpace=wrap;" parent="1" vertex="1">
          <mxGeometry x="750" y="235" width="110" height="50" as="geometry" />
        </mxCell>
        <mxCell id="AwBZS3FAdFc2S0S6h1P7-13" value="IngresarDetallesProducto()" style="html=1;verticalAlign=bottom;endArrow=block;edgeStyle=elbowEdgeStyle;elbow=vertical;curved=0;rounded=0;entryX=-0.166;entryY=0.276;entryDx=0;entryDy=0;entryPerimeter=0;" parent="1" edge="1">
          <mxGeometry width="80" relative="1" as="geometry">
            <mxPoint x="405" y="390.47" as="sourcePoint" />
            <mxPoint x="566.6799999999998" y="390.3599999999999" as="targetPoint" />
          </mxGeometry>
        </mxCell>
        <mxCell id="AwBZS3FAdFc2S0S6h1P7-14" value="confirmacion()" style="html=1;verticalAlign=bottom;endArrow=open;dashed=1;endSize=8;edgeStyle=elbowEdgeStyle;elbow=vertical;curved=0;rounded=0;" parent="1" edge="1">
          <mxGeometry relative="1" as="geometry">
            <mxPoint x="570" y="414.75" as="sourcePoint" />
            <mxPoint x="410" y="415" as="targetPoint" />
          </mxGeometry>
        </mxCell>
        <mxCell id="AwBZS3FAdFc2S0S6h1P7-15" value="" style="endArrow=none;dashed=1;html=1;rounded=0;" parent="1" target="AwBZS3FAdFc2S0S6h1P7-27" edge="1">
          <mxGeometry width="50" height="50" relative="1" as="geometry">
            <mxPoint x="395" y="490" as="sourcePoint" />
            <mxPoint x="394.58" y="470" as="targetPoint" />
          </mxGeometry>
        </mxCell>
        <mxCell id="AwBZS3FAdFc2S0S6h1P7-16" value="" style="endArrow=none;dashed=1;html=1;rounded=0;" parent="1" source="AwBZS3FAdFc2S0S6h1P7-30" edge="1">
          <mxGeometry width="50" height="50" relative="1" as="geometry">
            <mxPoint x="580" y="500" as="sourcePoint" />
            <mxPoint x="579.5799999999999" y="470" as="targetPoint" />
          </mxGeometry>
        </mxCell>
        <mxCell id="AwBZS3FAdFc2S0S6h1P7-20" value="VerificarDisponibilidadProd()" style="html=1;verticalAlign=bottom;endArrow=block;edgeStyle=elbowEdgeStyle;elbow=vertical;curved=0;rounded=0;entryX=-0.166;entryY=0.276;entryDx=0;entryDy=0;entryPerimeter=0;" parent="1" edge="1">
          <mxGeometry width="80" relative="1" as="geometry">
            <mxPoint x="408" y="510.64000000000004" as="sourcePoint" />
            <mxPoint x="570" y="510.17" as="targetPoint" />
          </mxGeometry>
        </mxCell>
        <mxCell id="AwBZS3FAdFc2S0S6h1P7-21" value="" style="endArrow=none;dashed=1;html=1;rounded=0;" parent="1" edge="1">
          <mxGeometry width="50" height="50" relative="1" as="geometry">
            <mxPoint x="810" y="520" as="sourcePoint" />
            <mxPoint x="810" y="285" as="targetPoint" />
          </mxGeometry>
        </mxCell>
        <mxCell id="AwBZS3FAdFc2S0S6h1P7-23" value="VerificarExistencias()" style="html=1;verticalAlign=bottom;endArrow=block;edgeStyle=elbowEdgeStyle;elbow=vertical;curved=0;rounded=0;entryX=0;entryY=0.222;entryDx=0;entryDy=0;entryPerimeter=0;" parent="1" edge="1">
          <mxGeometry x="-0.0015" width="80" relative="1" as="geometry">
            <mxPoint x="588" y="540.4700000000001" as="sourcePoint" />
            <mxPoint x="800" y="539.98" as="targetPoint" />
            <mxPoint as="offset" />
          </mxGeometry>
        </mxCell>
        <mxCell id="AwBZS3FAdFc2S0S6h1P7-24" value="ExistenciasProd(): bool" style="html=1;verticalAlign=bottom;endArrow=open;dashed=1;endSize=8;edgeStyle=elbowEdgeStyle;elbow=vertical;curved=0;rounded=0;entryX=1.067;entryY=0.729;entryDx=0;entryDy=0;entryPerimeter=0;" parent="1" edge="1">
          <mxGeometry relative="1" as="geometry">
            <mxPoint x="800" y="580.05" as="sourcePoint" />
            <mxPoint x="591.3399999999997" y="580.1899999999998" as="targetPoint" />
          </mxGeometry>
        </mxCell>
        <mxCell id="AwBZS3FAdFc2S0S6h1P7-27" value="" style="html=1;points=[];perimeter=orthogonalPerimeter;outlineConnect=0;targetShapes=umlLifeline;portConstraint=eastwest;newEdgeStyle={&quot;edgeStyle&quot;:&quot;elbowEdgeStyle&quot;,&quot;elbow&quot;:&quot;vertical&quot;,&quot;curved&quot;:0,&quot;rounded&quot;:0};" parent="1" vertex="1">
          <mxGeometry x="385" y="360" width="20" height="100" as="geometry" />
        </mxCell>
        <mxCell id="AwBZS3FAdFc2S0S6h1P7-28" value="" style="html=1;points=[];perimeter=orthogonalPerimeter;outlineConnect=0;targetShapes=umlLifeline;portConstraint=eastwest;newEdgeStyle={&quot;edgeStyle&quot;:&quot;elbowEdgeStyle&quot;,&quot;elbow&quot;:&quot;vertical&quot;,&quot;curved&quot;:0,&quot;rounded&quot;:0};" parent="1" vertex="1">
          <mxGeometry x="385" y="490" width="20" height="120" as="geometry" />
        </mxCell>
        <mxCell id="AwBZS3FAdFc2S0S6h1P7-29" value="" style="html=1;points=[];perimeter=orthogonalPerimeter;outlineConnect=0;targetShapes=umlLifeline;portConstraint=eastwest;newEdgeStyle={&quot;edgeStyle&quot;:&quot;elbowEdgeStyle&quot;,&quot;elbow&quot;:&quot;vertical&quot;,&quot;curved&quot;:0,&quot;rounded&quot;:0};" parent="1" vertex="1">
          <mxGeometry x="570" y="360" width="20" height="110" as="geometry" />
        </mxCell>
        <mxCell id="AwBZS3FAdFc2S0S6h1P7-30" value="" style="html=1;points=[];perimeter=orthogonalPerimeter;outlineConnect=0;targetShapes=umlLifeline;portConstraint=eastwest;newEdgeStyle={&quot;edgeStyle&quot;:&quot;elbowEdgeStyle&quot;,&quot;elbow&quot;:&quot;vertical&quot;,&quot;curved&quot;:0,&quot;rounded&quot;:0};" parent="1" vertex="1">
          <mxGeometry x="570" y="510" width="20" height="100" as="geometry" />
        </mxCell>
        <mxCell id="AwBZS3FAdFc2S0S6h1P7-31" value="" style="html=1;points=[];perimeter=orthogonalPerimeter;outlineConnect=0;targetShapes=umlLifeline;portConstraint=eastwest;newEdgeStyle={&quot;edgeStyle&quot;:&quot;elbowEdgeStyle&quot;,&quot;elbow&quot;:&quot;vertical&quot;,&quot;curved&quot;:0,&quot;rounded&quot;:0};" parent="1" vertex="1">
          <mxGeometry x="800" y="520" width="20" height="90" as="geometry" />
        </mxCell>
        <mxCell id="AwBZS3FAdFc2S0S6h1P7-32" value="loop" style="shape=umlFrame;whiteSpace=wrap;html=1;pointerEvents=0;" parent="1" vertex="1">
          <mxGeometry x="590" y="490" width="210" height="110" as="geometry" />
        </mxCell>
        <mxCell id="AwBZS3FAdFc2S0S6h1P7-36" value="ConfirmacionProd()" style="html=1;verticalAlign=bottom;endArrow=open;dashed=1;endSize=8;edgeStyle=elbowEdgeStyle;elbow=vertical;curved=0;rounded=0;" parent="1" target="AwBZS3FAdFc2S0S6h1P7-28" edge="1">
          <mxGeometry x="-0.0032" relative="1" as="geometry">
            <mxPoint x="570" y="599.41" as="sourcePoint" />
            <mxPoint x="361.3399999999997" y="599.5499999999998" as="targetPoint" />
            <mxPoint as="offset" />
          </mxGeometry>
        </mxCell>
        <mxCell id="AwBZS3FAdFc2S0S6h1P7-37" value="" style="endArrow=none;dashed=1;html=1;rounded=0;" parent="1" edge="1">
          <mxGeometry width="50" height="50" relative="1" as="geometry">
            <mxPoint x="394.71" y="640" as="sourcePoint" />
            <mxPoint x="394.71" y="610" as="targetPoint" />
          </mxGeometry>
        </mxCell>
        <mxCell id="AwBZS3FAdFc2S0S6h1P7-38" value="" style="endArrow=none;dashed=1;html=1;rounded=0;" parent="1" edge="1">
          <mxGeometry width="50" height="50" relative="1" as="geometry">
            <mxPoint x="580" y="650" as="sourcePoint" />
            <mxPoint x="580" y="610" as="targetPoint" />
          </mxGeometry>
        </mxCell>
        <mxCell id="AwBZS3FAdFc2S0S6h1P7-39" value="" style="endArrow=none;dashed=1;html=1;rounded=0;" parent="1" edge="1">
          <mxGeometry width="50" height="50" relative="1" as="geometry">
            <mxPoint x="810" y="800" as="sourcePoint" />
            <mxPoint x="809.71" y="610" as="targetPoint" />
          </mxGeometry>
        </mxCell>
        <mxCell id="AwBZS3FAdFc2S0S6h1P7-40" value="" style="html=1;points=[];perimeter=orthogonalPerimeter;outlineConnect=0;targetShapes=umlLifeline;portConstraint=eastwest;newEdgeStyle={&quot;edgeStyle&quot;:&quot;elbowEdgeStyle&quot;,&quot;elbow&quot;:&quot;vertical&quot;,&quot;curved&quot;:0,&quot;rounded&quot;:0};" parent="1" vertex="1">
          <mxGeometry x="385" y="640" width="20" height="60" as="geometry" />
        </mxCell>
        <mxCell id="AwBZS3FAdFc2S0S6h1P7-41" value="" style="html=1;points=[];perimeter=orthogonalPerimeter;outlineConnect=0;targetShapes=umlLifeline;portConstraint=eastwest;newEdgeStyle={&quot;edgeStyle&quot;:&quot;elbowEdgeStyle&quot;,&quot;elbow&quot;:&quot;vertical&quot;,&quot;curved&quot;:0,&quot;rounded&quot;:0};" parent="1" vertex="1">
          <mxGeometry x="570" y="650" width="20" height="120" as="geometry" />
        </mxCell>
        <mxCell id="AwBZS3FAdFc2S0S6h1P7-42" value="GenerarCotización()" style="html=1;verticalAlign=bottom;endArrow=block;edgeStyle=elbowEdgeStyle;elbow=vertical;curved=0;rounded=0;" parent="1" target="AwBZS3FAdFc2S0S6h1P7-41" edge="1">
          <mxGeometry x="-0.0025" width="80" relative="1" as="geometry">
            <mxPoint x="405" y="660.24" as="sourcePoint" />
            <mxPoint x="485" y="660.24" as="targetPoint" />
            <mxPoint as="offset" />
          </mxGeometry>
        </mxCell>
        <mxCell id="AwBZS3FAdFc2S0S6h1P7-45" value="ComprobanteCotización()" style="html=1;verticalAlign=bottom;endArrow=open;dashed=1;endSize=8;edgeStyle=elbowEdgeStyle;elbow=vertical;curved=0;rounded=0;" parent="1" source="AwBZS3FAdFc2S0S6h1P7-41" edge="1">
          <mxGeometry x="-0.0025" relative="1" as="geometry">
            <mxPoint x="485" y="700.24" as="sourcePoint" />
            <mxPoint x="405" y="700.24" as="targetPoint" />
            <mxPoint as="offset" />
          </mxGeometry>
        </mxCell>
        <mxCell id="AwBZS3FAdFc2S0S6h1P7-48" value="" style="endArrow=none;dashed=1;html=1;rounded=0;" parent="1" edge="1">
          <mxGeometry width="50" height="50" relative="1" as="geometry">
            <mxPoint x="580" y="800" as="sourcePoint" />
            <mxPoint x="580" y="770" as="targetPoint" />
          </mxGeometry>
        </mxCell>
        <mxCell id="AwBZS3FAdFc2S0S6h1P7-49" value="" style="endArrow=none;dashed=1;html=1;rounded=0;" parent="1" edge="1">
          <mxGeometry width="50" height="50" relative="1" as="geometry">
            <mxPoint x="395" y="800" as="sourcePoint" />
            <mxPoint x="394.58000000000004" y="700" as="targetPoint" />
          </mxGeometry>
        </mxCell>
        <mxCell id="Fmo2NcmDHXEGDh9ddv9J-2" value="DB" style="shape=datastore;whiteSpace=wrap;html=1;" parent="1" vertex="1">
          <mxGeometry x="1000" y="230" width="60" height="60" as="geometry" />
        </mxCell>
        <mxCell id="Fmo2NcmDHXEGDh9ddv9J-3" value="" style="endArrow=none;dashed=1;html=1;rounded=0;" parent="1" edge="1">
          <mxGeometry width="50" height="50" relative="1" as="geometry">
            <mxPoint x="1030" y="520" as="sourcePoint" />
            <mxPoint x="1029.5" y="290" as="targetPoint" />
          </mxGeometry>
        </mxCell>
        <mxCell id="Fmo2NcmDHXEGDh9ddv9J-4" value="" style="html=1;points=[];perimeter=orthogonalPerimeter;outlineConnect=0;targetShapes=umlLifeline;portConstraint=eastwest;newEdgeStyle={&quot;edgeStyle&quot;:&quot;elbowEdgeStyle&quot;,&quot;elbow&quot;:&quot;vertical&quot;,&quot;curved&quot;:0,&quot;rounded&quot;:0};" parent="1" vertex="1">
          <mxGeometry x="1020" y="520" width="20" height="90" as="geometry" />
        </mxCell>
        <mxCell id="Fmo2NcmDHXEGDh9ddv9J-5" value="VerificarExistencias()" style="html=1;verticalAlign=bottom;endArrow=block;edgeStyle=elbowEdgeStyle;elbow=vertical;curved=0;rounded=0;" parent="1" edge="1">
          <mxGeometry x="-0.0015" width="80" relative="1" as="geometry">
            <mxPoint x="820" y="549.9900000000001" as="sourcePoint" />
            <mxPoint x="1020" y="550" as="targetPoint" />
            <mxPoint as="offset" />
          </mxGeometry>
        </mxCell>
        <mxCell id="Fmo2NcmDHXEGDh9ddv9J-6" value="" style="html=1;verticalAlign=bottom;endArrow=open;dashed=1;endSize=8;edgeStyle=elbowEdgeStyle;elbow=vertical;curved=0;rounded=0;entryX=1.067;entryY=0.729;entryDx=0;entryDy=0;entryPerimeter=0;" parent="1" edge="1">
          <mxGeometry relative="1" as="geometry">
            <mxPoint x="1020" y="580" as="sourcePoint" />
            <mxPoint x="819.9999999999997" y="580.1899999999998" as="targetPoint" />
          </mxGeometry>
        </mxCell>
        <mxCell id="Fmo2NcmDHXEGDh9ddv9J-7" value="" style="endArrow=none;dashed=1;html=1;rounded=0;" parent="1" edge="1">
          <mxGeometry width="50" height="50" relative="1" as="geometry">
            <mxPoint x="1030" y="650" as="sourcePoint" />
            <mxPoint x="1029.5" y="610" as="targetPoint" />
          </mxGeometry>
        </mxCell>
        <mxCell id="Fmo2NcmDHXEGDh9ddv9J-8" value="" style="html=1;points=[];perimeter=orthogonalPerimeter;outlineConnect=0;targetShapes=umlLifeline;portConstraint=eastwest;newEdgeStyle={&quot;edgeStyle&quot;:&quot;elbowEdgeStyle&quot;,&quot;elbow&quot;:&quot;vertical&quot;,&quot;curved&quot;:0,&quot;rounded&quot;:0};" parent="1" vertex="1">
          <mxGeometry x="1020" y="650" width="20" height="110" as="geometry" />
        </mxCell>
        <mxCell id="Fmo2NcmDHXEGDh9ddv9J-9" value="GuardarCotizacion()" style="html=1;verticalAlign=bottom;endArrow=block;edgeStyle=elbowEdgeStyle;elbow=vertical;curved=0;rounded=0;" parent="1" target="Fmo2NcmDHXEGDh9ddv9J-8" edge="1">
          <mxGeometry x="-0.0025" width="80" relative="1" as="geometry">
            <mxPoint x="590" y="680.24" as="sourcePoint" />
            <mxPoint x="755" y="680" as="targetPoint" />
            <mxPoint as="offset" />
          </mxGeometry>
        </mxCell>
        <mxCell id="Fmo2NcmDHXEGDh9ddv9J-10" value="" style="html=1;verticalAlign=bottom;endArrow=open;dashed=1;endSize=8;edgeStyle=elbowEdgeStyle;elbow=vertical;curved=0;rounded=0;" parent="1" target="AwBZS3FAdFc2S0S6h1P7-41" edge="1">
          <mxGeometry x="-0.0025" relative="1" as="geometry">
            <mxPoint x="1015" y="700" as="sourcePoint" />
            <mxPoint x="850" y="700.24" as="targetPoint" />
            <mxPoint as="offset" />
          </mxGeometry>
        </mxCell>
        <mxCell id="Fmo2NcmDHXEGDh9ddv9J-11" value="" style="endArrow=none;dashed=1;html=1;rounded=0;" parent="1" edge="1">
          <mxGeometry width="50" height="50" relative="1" as="geometry">
            <mxPoint x="1030" y="800" as="sourcePoint" />
            <mxPoint x="1029.5" y="760" as="targetPoint" />
          </mxGeometry>
        </mxCell>
      </root>
    </mxGraphModel>
  </diagram>
  <diagram id="JsG9u1lYlTAe6fGdU__f" name="Generar Orden de Compra [DSS]">
    <mxGraphModel dx="984" dy="647" grid="1" gridSize="10" guides="1" tooltips="1" connect="1" arrows="1" fold="1" page="1" pageScale="1" pageWidth="827" pageHeight="1169" math="0" shadow="0">
      <root>
        <mxCell id="0" />
        <mxCell id="1" parent="0" />
        <mxCell id="wl0ClA8JHD9h__ykEAFZ-2" value="Vendedor" style="shape=umlActor;verticalLabelPosition=bottom;verticalAlign=top;html=1;" parent="1" vertex="1">
          <mxGeometry x="380" y="220" width="30" height="60" as="geometry" />
        </mxCell>
        <mxCell id="wl0ClA8JHD9h__ykEAFZ-4" value="" style="endArrow=none;dashed=1;html=1;rounded=0;" parent="1" edge="1">
          <mxGeometry width="50" height="50" relative="1" as="geometry">
            <mxPoint x="394.40999999999997" y="360" as="sourcePoint" />
            <mxPoint x="394.40999999999997" y="300" as="targetPoint" />
          </mxGeometry>
        </mxCell>
        <mxCell id="wl0ClA8JHD9h__ykEAFZ-5" value="Sistema" style="ellipse;shape=umlEntity;whiteSpace=wrap;html=1;" parent="1" vertex="1">
          <mxGeometry x="540" y="220" width="80" height="80" as="geometry" />
        </mxCell>
        <mxCell id="wl0ClA8JHD9h__ykEAFZ-6" value="" style="endArrow=none;dashed=1;html=1;rounded=0;" parent="1" edge="1">
          <mxGeometry width="50" height="50" relative="1" as="geometry">
            <mxPoint x="580" y="360" as="sourcePoint" />
            <mxPoint x="580" y="300" as="targetPoint" />
          </mxGeometry>
        </mxCell>
        <mxCell id="wl0ClA8JHD9h__ykEAFZ-7" value="Orden de Compra" style="html=1;whiteSpace=wrap;" parent="1" vertex="1">
          <mxGeometry x="750" y="235" width="110" height="50" as="geometry" />
        </mxCell>
        <mxCell id="wl0ClA8JHD9h__ykEAFZ-11" value="" style="endArrow=none;dashed=1;html=1;rounded=0;" parent="1" target="wl0ClA8JHD9h__ykEAFZ-19" edge="1">
          <mxGeometry width="50" height="50" relative="1" as="geometry">
            <mxPoint x="395" y="490" as="sourcePoint" />
            <mxPoint x="394.58" y="470" as="targetPoint" />
          </mxGeometry>
        </mxCell>
        <mxCell id="wl0ClA8JHD9h__ykEAFZ-12" value="" style="endArrow=none;dashed=1;html=1;rounded=0;" parent="1" source="wl0ClA8JHD9h__ykEAFZ-22" edge="1">
          <mxGeometry width="50" height="50" relative="1" as="geometry">
            <mxPoint x="580" y="500" as="sourcePoint" />
            <mxPoint x="579.5799999999999" y="470" as="targetPoint" />
          </mxGeometry>
        </mxCell>
        <mxCell id="wl0ClA8JHD9h__ykEAFZ-15" value="" style="endArrow=none;dashed=1;html=1;rounded=0;" parent="1" edge="1">
          <mxGeometry width="50" height="50" relative="1" as="geometry">
            <mxPoint x="810" y="450" as="sourcePoint" />
            <mxPoint x="810" y="285" as="targetPoint" />
          </mxGeometry>
        </mxCell>
        <mxCell id="wl0ClA8JHD9h__ykEAFZ-19" value="" style="html=1;points=[];perimeter=orthogonalPerimeter;outlineConnect=0;targetShapes=umlLifeline;portConstraint=eastwest;newEdgeStyle={&quot;edgeStyle&quot;:&quot;elbowEdgeStyle&quot;,&quot;elbow&quot;:&quot;vertical&quot;,&quot;curved&quot;:0,&quot;rounded&quot;:0};" parent="1" vertex="1">
          <mxGeometry x="385" y="360" width="20" height="100" as="geometry" />
        </mxCell>
        <mxCell id="wl0ClA8JHD9h__ykEAFZ-20" value="" style="html=1;points=[];perimeter=orthogonalPerimeter;outlineConnect=0;targetShapes=umlLifeline;portConstraint=eastwest;newEdgeStyle={&quot;edgeStyle&quot;:&quot;elbowEdgeStyle&quot;,&quot;elbow&quot;:&quot;vertical&quot;,&quot;curved&quot;:0,&quot;rounded&quot;:0};" parent="1" vertex="1">
          <mxGeometry x="385" y="490" width="20" height="120" as="geometry" />
        </mxCell>
        <mxCell id="wl0ClA8JHD9h__ykEAFZ-21" value="" style="html=1;points=[];perimeter=orthogonalPerimeter;outlineConnect=0;targetShapes=umlLifeline;portConstraint=eastwest;newEdgeStyle={&quot;edgeStyle&quot;:&quot;elbowEdgeStyle&quot;,&quot;elbow&quot;:&quot;vertical&quot;,&quot;curved&quot;:0,&quot;rounded&quot;:0};" parent="1" vertex="1">
          <mxGeometry x="570" y="360" width="20" height="110" as="geometry" />
        </mxCell>
        <mxCell id="wl0ClA8JHD9h__ykEAFZ-22" value="" style="html=1;points=[];perimeter=orthogonalPerimeter;outlineConnect=0;targetShapes=umlLifeline;portConstraint=eastwest;newEdgeStyle={&quot;edgeStyle&quot;:&quot;elbowEdgeStyle&quot;,&quot;elbow&quot;:&quot;vertical&quot;,&quot;curved&quot;:0,&quot;rounded&quot;:0};" parent="1" vertex="1">
          <mxGeometry x="570" y="510" width="20" height="100" as="geometry" />
        </mxCell>
        <mxCell id="wl0ClA8JHD9h__ykEAFZ-23" value="" style="html=1;points=[];perimeter=orthogonalPerimeter;outlineConnect=0;targetShapes=umlLifeline;portConstraint=eastwest;newEdgeStyle={&quot;edgeStyle&quot;:&quot;elbowEdgeStyle&quot;,&quot;elbow&quot;:&quot;vertical&quot;,&quot;curved&quot;:0,&quot;rounded&quot;:0};" parent="1" vertex="1">
          <mxGeometry x="800" y="450" width="20" height="170" as="geometry" />
        </mxCell>
        <mxCell id="wl0ClA8JHD9h__ykEAFZ-26" value="" style="endArrow=none;dashed=1;html=1;rounded=0;" parent="1" edge="1">
          <mxGeometry width="50" height="50" relative="1" as="geometry">
            <mxPoint x="394.71" y="640" as="sourcePoint" />
            <mxPoint x="394.71" y="610" as="targetPoint" />
          </mxGeometry>
        </mxCell>
        <mxCell id="wl0ClA8JHD9h__ykEAFZ-27" value="" style="endArrow=none;dashed=1;html=1;rounded=0;" parent="1" edge="1">
          <mxGeometry width="50" height="50" relative="1" as="geometry">
            <mxPoint x="580" y="650" as="sourcePoint" />
            <mxPoint x="580" y="610" as="targetPoint" />
          </mxGeometry>
        </mxCell>
        <mxCell id="wl0ClA8JHD9h__ykEAFZ-28" value="" style="endArrow=none;dashed=1;html=1;rounded=0;" parent="1" edge="1">
          <mxGeometry width="50" height="50" relative="1" as="geometry">
            <mxPoint x="810" y="660" as="sourcePoint" />
            <mxPoint x="810" y="620" as="targetPoint" />
          </mxGeometry>
        </mxCell>
        <mxCell id="wl0ClA8JHD9h__ykEAFZ-29" value="" style="html=1;points=[];perimeter=orthogonalPerimeter;outlineConnect=0;targetShapes=umlLifeline;portConstraint=eastwest;newEdgeStyle={&quot;edgeStyle&quot;:&quot;elbowEdgeStyle&quot;,&quot;elbow&quot;:&quot;vertical&quot;,&quot;curved&quot;:0,&quot;rounded&quot;:0};" parent="1" vertex="1">
          <mxGeometry x="385" y="640" width="20" height="120" as="geometry" />
        </mxCell>
        <mxCell id="wl0ClA8JHD9h__ykEAFZ-30" value="" style="html=1;points=[];perimeter=orthogonalPerimeter;outlineConnect=0;targetShapes=umlLifeline;portConstraint=eastwest;newEdgeStyle={&quot;edgeStyle&quot;:&quot;elbowEdgeStyle&quot;,&quot;elbow&quot;:&quot;vertical&quot;,&quot;curved&quot;:0,&quot;rounded&quot;:0};" parent="1" vertex="1">
          <mxGeometry x="570" y="650" width="20" height="120" as="geometry" />
        </mxCell>
        <mxCell id="wl0ClA8JHD9h__ykEAFZ-35" value="" style="endArrow=none;dashed=1;html=1;rounded=0;" parent="1" edge="1">
          <mxGeometry width="50" height="50" relative="1" as="geometry">
            <mxPoint x="580" y="800" as="sourcePoint" />
            <mxPoint x="580" y="770" as="targetPoint" />
          </mxGeometry>
        </mxCell>
        <mxCell id="wl0ClA8JHD9h__ykEAFZ-36" value="" style="endArrow=none;dashed=1;html=1;rounded=0;" parent="1" edge="1">
          <mxGeometry width="50" height="50" relative="1" as="geometry">
            <mxPoint x="395" y="800" as="sourcePoint" />
            <mxPoint x="395" y="760" as="targetPoint" />
          </mxGeometry>
        </mxCell>
        <mxCell id="wl0ClA8JHD9h__ykEAFZ-38" value="GenerarOrdenDeCompra()" style="html=1;verticalAlign=bottom;endArrow=block;edgeStyle=elbowEdgeStyle;elbow=vertical;curved=0;rounded=0;" parent="1" target="wl0ClA8JHD9h__ykEAFZ-21" edge="1">
          <mxGeometry width="80" relative="1" as="geometry">
            <mxPoint x="405" y="370" as="sourcePoint" />
            <mxPoint x="485" y="370" as="targetPoint" />
          </mxGeometry>
        </mxCell>
        <mxCell id="wl0ClA8JHD9h__ykEAFZ-39" value="DesplegarFormulario()" style="html=1;verticalAlign=bottom;endArrow=open;dashed=1;endSize=8;edgeStyle=elbowEdgeStyle;elbow=vertical;curved=0;rounded=0;" parent="1" edge="1">
          <mxGeometry relative="1" as="geometry">
            <mxPoint x="570" y="400" as="sourcePoint" />
            <mxPoint x="410" y="400" as="targetPoint" />
          </mxGeometry>
        </mxCell>
        <mxCell id="wl0ClA8JHD9h__ykEAFZ-40" value="ingresarDetalles(OrdenDeCompra)" style="html=1;verticalAlign=bottom;endArrow=block;edgeStyle=elbowEdgeStyle;elbow=vertical;curved=0;rounded=0;" parent="1" edge="1">
          <mxGeometry width="80" relative="1" as="geometry">
            <mxPoint x="410" y="450" as="sourcePoint" />
            <mxPoint x="575" y="450" as="targetPoint" />
          </mxGeometry>
        </mxCell>
        <mxCell id="wl0ClA8JHD9h__ykEAFZ-41" value="VerificarDetalles(OrdenDeCompra)" style="html=1;verticalAlign=bottom;endArrow=block;edgeStyle=elbowEdgeStyle;elbow=vertical;curved=0;rounded=0;" parent="1" target="wl0ClA8JHD9h__ykEAFZ-23" edge="1">
          <mxGeometry width="80" relative="1" as="geometry">
            <mxPoint x="590" y="470" as="sourcePoint" />
            <mxPoint x="755" y="470" as="targetPoint" />
            <Array as="points">
              <mxPoint x="690" y="470" />
            </Array>
          </mxGeometry>
        </mxCell>
        <mxCell id="wl0ClA8JHD9h__ykEAFZ-42" value="" style="html=1;verticalAlign=bottom;endArrow=open;dashed=1;endSize=8;edgeStyle=elbowEdgeStyle;elbow=vertical;curved=0;rounded=0;" parent="1" edge="1" target="wl0ClA8JHD9h__ykEAFZ-22">
          <mxGeometry relative="1" as="geometry">
            <mxPoint x="800" y="520" as="sourcePoint" />
            <mxPoint x="600" y="520" as="targetPoint" />
          </mxGeometry>
        </mxCell>
        <mxCell id="wl0ClA8JHD9h__ykEAFZ-43" value="" style="html=1;verticalAlign=bottom;endArrow=open;dashed=1;endSize=8;edgeStyle=elbowEdgeStyle;elbow=vertical;curved=0;rounded=0;" parent="1" edge="1">
          <mxGeometry relative="1" as="geometry">
            <mxPoint x="570" y="520" as="sourcePoint" />
            <mxPoint x="410" y="520" as="targetPoint" />
          </mxGeometry>
        </mxCell>
        <mxCell id="wl0ClA8JHD9h__ykEAFZ-44" value="ConfirmacionDetalles()" style="text;html=1;align=center;verticalAlign=middle;resizable=0;points=[];autosize=1;strokeColor=none;fillColor=none;" parent="1" vertex="1">
          <mxGeometry x="405" y="498" width="150" height="30" as="geometry" />
        </mxCell>
        <mxCell id="wl0ClA8JHD9h__ykEAFZ-45" value="ConfirmarCreación(OrdenDeCompra)" style="html=1;verticalAlign=bottom;endArrow=block;edgeStyle=elbowEdgeStyle;elbow=horizontal;curved=0;rounded=0;" parent="1" edge="1">
          <mxGeometry width="80" relative="1" as="geometry">
            <mxPoint x="405" y="559.5" as="sourcePoint" />
            <mxPoint x="570" y="559.5" as="targetPoint" />
            <mxPoint as="offset" />
          </mxGeometry>
        </mxCell>
        <mxCell id="wl0ClA8JHD9h__ykEAFZ-46" value="CrearOrden()" style="html=1;verticalAlign=bottom;endArrow=block;edgeStyle=elbowEdgeStyle;elbow=horizontal;curved=0;rounded=0;" parent="1" edge="1">
          <mxGeometry width="80" relative="1" as="geometry">
            <mxPoint x="590" y="585" as="sourcePoint" />
            <mxPoint x="790" y="585" as="targetPoint" />
            <mxPoint as="offset" />
          </mxGeometry>
        </mxCell>
        <mxCell id="wl0ClA8JHD9h__ykEAFZ-48" value="" style="html=1;points=[];perimeter=orthogonalPerimeter;outlineConnect=0;targetShapes=umlLifeline;portConstraint=eastwest;newEdgeStyle={&quot;edgeStyle&quot;:&quot;elbowEdgeStyle&quot;,&quot;elbow&quot;:&quot;vertical&quot;,&quot;curved&quot;:0,&quot;rounded&quot;:0};" parent="1" vertex="1">
          <mxGeometry x="800" y="660" width="20" height="30" as="geometry" />
        </mxCell>
        <mxCell id="wl0ClA8JHD9h__ykEAFZ-49" value="" style="html=1;verticalAlign=bottom;endArrow=open;dashed=1;endSize=8;edgeStyle=elbowEdgeStyle;elbow=vertical;curved=0;rounded=0;" parent="1" target="wl0ClA8JHD9h__ykEAFZ-30" edge="1">
          <mxGeometry relative="1" as="geometry">
            <mxPoint x="800" y="680" as="sourcePoint" />
            <mxPoint x="600" y="680" as="targetPoint" />
          </mxGeometry>
        </mxCell>
        <mxCell id="wl0ClA8JHD9h__ykEAFZ-50" value="" style="html=1;verticalAlign=bottom;endArrow=open;dashed=1;endSize=8;edgeStyle=elbowEdgeStyle;elbow=vertical;curved=0;rounded=0;" parent="1" edge="1">
          <mxGeometry relative="1" as="geometry">
            <mxPoint x="570" y="680" as="sourcePoint" />
            <mxPoint x="410" y="680" as="targetPoint" />
          </mxGeometry>
        </mxCell>
        <mxCell id="wl0ClA8JHD9h__ykEAFZ-51" value="VentanaConfirmación()" style="text;html=1;align=center;verticalAlign=middle;resizable=0;points=[];autosize=1;strokeColor=none;fillColor=none;" parent="1" vertex="1">
          <mxGeometry x="395" y="658" width="150" height="30" as="geometry" />
        </mxCell>
        <mxCell id="wl0ClA8JHD9h__ykEAFZ-52" value="ConfirmarOrden()" style="html=1;verticalAlign=bottom;endArrow=block;edgeStyle=elbowEdgeStyle;elbow=horizontal;curved=0;rounded=0;" parent="1" edge="1">
          <mxGeometry width="80" relative="1" as="geometry">
            <mxPoint x="405" y="720" as="sourcePoint" />
            <mxPoint x="570" y="720" as="targetPoint" />
            <mxPoint as="offset" />
          </mxGeometry>
        </mxCell>
        <mxCell id="wl0ClA8JHD9h__ykEAFZ-53" value="" style="html=1;verticalAlign=bottom;endArrow=open;dashed=1;endSize=8;edgeStyle=elbowEdgeStyle;elbow=vertical;curved=0;rounded=0;" parent="1" edge="1">
          <mxGeometry relative="1" as="geometry">
            <mxPoint x="570" y="759.2" as="sourcePoint" />
            <mxPoint x="410" y="760" as="targetPoint" />
          </mxGeometry>
        </mxCell>
        <mxCell id="wl0ClA8JHD9h__ykEAFZ-54" value="GenerarComprobante()" style="text;html=1;align=center;verticalAlign=middle;resizable=0;points=[];autosize=1;strokeColor=none;fillColor=none;" parent="1" vertex="1">
          <mxGeometry x="420" y="730" width="150" height="30" as="geometry" />
        </mxCell>
        <mxCell id="wl0ClA8JHD9h__ykEAFZ-55" value="" style="endArrow=none;dashed=1;html=1;rounded=0;" parent="1" edge="1">
          <mxGeometry width="50" height="50" relative="1" as="geometry">
            <mxPoint x="810" y="800" as="sourcePoint" />
            <mxPoint x="809.6" y="690" as="targetPoint" />
          </mxGeometry>
        </mxCell>
        <mxCell id="XWVEGEI5HyWFNPkSDdDq-1" value="DB" style="shape=datastore;whiteSpace=wrap;html=1;" vertex="1" parent="1">
          <mxGeometry x="1000" y="230" width="60" height="60" as="geometry" />
        </mxCell>
        <mxCell id="XWVEGEI5HyWFNPkSDdDq-2" value="" style="endArrow=none;dashed=1;html=1;rounded=0;" edge="1" parent="1">
          <mxGeometry width="50" height="50" relative="1" as="geometry">
            <mxPoint x="1030" y="680" as="sourcePoint" />
            <mxPoint x="1029.5" y="295" as="targetPoint" />
          </mxGeometry>
        </mxCell>
        <mxCell id="XWVEGEI5HyWFNPkSDdDq-3" value="" style="html=1;points=[];perimeter=orthogonalPerimeter;outlineConnect=0;targetShapes=umlLifeline;portConstraint=eastwest;newEdgeStyle={&quot;edgeStyle&quot;:&quot;elbowEdgeStyle&quot;,&quot;elbow&quot;:&quot;vertical&quot;,&quot;curved&quot;:0,&quot;rounded&quot;:0};" vertex="1" parent="1">
          <mxGeometry x="1020" y="680" width="20" height="80" as="geometry" />
        </mxCell>
        <mxCell id="XWVEGEI5HyWFNPkSDdDq-4" value="GuardarOrden()" style="html=1;verticalAlign=bottom;endArrow=block;edgeStyle=elbowEdgeStyle;elbow=horizontal;curved=0;rounded=0;" edge="1" parent="1">
          <mxGeometry width="80" relative="1" as="geometry">
            <mxPoint x="600" y="730" as="sourcePoint" />
            <mxPoint x="1010" y="730" as="targetPoint" />
            <mxPoint as="offset" />
          </mxGeometry>
        </mxCell>
        <mxCell id="XWVEGEI5HyWFNPkSDdDq-7" value="" style="html=1;verticalAlign=bottom;endArrow=open;dashed=1;endSize=8;edgeStyle=elbowEdgeStyle;elbow=vertical;curved=0;rounded=0;" edge="1" parent="1" source="XWVEGEI5HyWFNPkSDdDq-3">
          <mxGeometry relative="1" as="geometry">
            <mxPoint x="750" y="760" as="sourcePoint" />
            <mxPoint x="590" y="760.8" as="targetPoint" />
          </mxGeometry>
        </mxCell>
        <mxCell id="XWVEGEI5HyWFNPkSDdDq-8" value="" style="endArrow=none;dashed=1;html=1;rounded=0;" edge="1" parent="1">
          <mxGeometry width="50" height="50" relative="1" as="geometry">
            <mxPoint x="1030" y="800" as="sourcePoint" />
            <mxPoint x="1029.5" y="760" as="targetPoint" />
          </mxGeometry>
        </mxCell>
      </root>
    </mxGraphModel>
  </diagram>
</mxfile>
